PathFileType	4	(X/Y/Z)	D:\TRACE\spot_10-12-23\spot_body_motion_3_3-platform.trc
DataRate	CameraRate	NumFrames	NumMarkers	Units	OrigDataRate	OrigDataStartFrame	OrigNumFrames
100.00	100.00	      31	5	mm	100.00	1751	      7000
Frame#	Time	Left_Front			Right_Front			Left_Aft			Right_Aft			Post			
		X1	Y1	Z1	X2	Y2	Z2	X3	Y3	Z3	X4	Y4	Z4	X5	Y5	Z5	

1751	17.500	-809.65295	0.92385	-642.91040	763.01648	4.98357	-635.94189	-726.52344	9.41043	494.94595	691.09583	14.80145	581.12396	-26.56539	735.02844	-967.76837	
1752	17.510	-809.19147	0.43552	-642.96613	762.99121	5.05997	-635.92682	-726.57574	9.32251	494.96994	691.01685	14.72776	581.11981	-26.61708	735.18903	-967.69440	
1753	17.520	-809.38501	0.67296	-642.90607	762.82593	5.17042	-635.97180	-726.59369	9.30036	495.04684	690.91608	14.57444	581.14441	-26.62378	735.32080	-967.59918	
1754	17.530	-809.54059	0.84539	-642.84021	762.78400	5.27915	-635.96002	-726.63098	9.25562	495.05167	690.82690	14.48036	581.13538	-26.68804	735.57629	-967.41431	
1755	17.540	-809.54993	0.86852	-642.81262	762.78387	5.33670	-635.93115	-726.67480	9.19204	495.11969	690.70819	14.38603	581.15833	-26.67789	735.77209	-967.14789	
1756	17.550	-809.67078	1.01302	-642.74615	762.76062	5.46745	-635.96124	-726.77374	9.22392	495.12436	690.62537	14.27805	581.18781	-26.69993	735.99481	-966.79700	
1757	17.560	-809.77765	1.14665	-642.72620	762.71893	5.59827	-635.97174	-726.81177	9.13743	495.14999	690.49860	14.13911	581.20007	-26.68671	736.20264	-966.36749	
1758	17.570	-809.93970	1.36508	-642.65381	762.60211	5.85631	-635.93262	-726.80444	8.87624	495.25488	690.48529	14.07104	581.23517	-26.79823	736.43915	-966.08240	
1759	17.580	-809.93994	1.44409	-642.64557	762.59393	5.96718	-635.96338	-726.72559	8.92772	495.26520	690.47809	14.01485	581.25208	-26.84745	736.60626	-965.97699	
1760	17.590	-809.94391	1.40414	-642.63940	762.62750	5.89664	-635.89655	-726.86707	8.87574	495.23666	690.36414	13.91733	581.27545	-26.90187	736.72998	-965.82220	
1761	17.600	-810.00116	1.48197	-642.61310	762.66168	6.00357	-635.88165	-726.88739	8.87014	495.26788	690.32916	13.90303	581.27307	-26.82991	736.74493	-965.66077	
1762	17.610	-810.04163	1.62302	-642.60547	762.63202	6.05082	-635.87708	-726.95349	8.75537	495.26297	690.35303	13.85924	581.31293	-26.80443	736.83569	-965.55225	
1763	17.620	-810.02643	1.58656	-642.57385	762.53802	6.14042	-635.87323	-726.95599	8.73126	495.29822	690.31787	13.80699	581.31287	-26.81519	736.92999	-965.54871	
1764	17.630	-810.08569	1.74121	-642.58820	762.50714	6.19599	-635.80737	-727.10046	8.68968	495.33466	690.26215	13.67549	581.40820	-27.07562	737.05115	-965.49841	
1765	17.640	-810.15826	1.87961	-642.54791	762.38043	6.39542	-635.79767	-727.22247	8.48377	495.33078	690.15613	13.46726	581.41736	-27.16135	737.23535	-965.61603	
1766	17.650	-810.15924	1.86255	-642.50995	762.22400	6.45895	-635.86121	-727.36237	8.34337	495.32706	690.04736	13.26221	581.43402	-27.26230	737.44446	-965.70477	
1767	17.660	-810.16895	2.14753	-642.56183	762.31720	6.51590	-635.72968	-727.36755	8.26819	495.36386	690.06854	13.16687	581.49329	-27.34662	737.61304	-965.76147	
1768	17.670	-810.25256	2.46612	-642.53186	762.23041	6.53425	-635.81866	-727.36652	8.21289	495.36340	689.99591	13.05177	581.53778	-27.35100	737.86456	-965.64404	
1769	17.680	-810.34796	2.61262	-642.46173	762.27502	6.74921	-635.63007	-727.38678	8.06199	495.40155	690.02655	12.95997	581.55206	-27.22213	738.13538	-965.40118	
1770	17.690	-810.40924	2.90138	-642.49164	762.23151	6.85886	-635.65936	-727.43982	8.00428	495.39465	689.98950	12.87746	581.56348	-27.35722	738.44183	-965.16931	
1771	17.700	-810.46600	3.00144	-642.45282	762.17279	6.92795	-635.71008	-727.48322	7.92876	495.37006	690.06335	12.83152	581.56250	-27.48856	738.46924	-964.81952	
1772	17.710	-810.42401	3.07418	-642.45728	762.17883	7.10748	-635.66852	-727.49060	7.88546	495.36505	690.05481	12.78321	581.56598	-27.57416	738.65735	-964.35095	
1773	17.720	-810.46399	3.25571	-642.40344	762.23584	7.36681	-635.62915	-727.46075	7.76812	495.39566	690.06396	12.68975	581.60980	-27.59371	738.78595	-964.00647	
1774	17.730	-810.61444	3.52684	-642.30438	762.25067	7.57460	-635.55273	-727.45862	7.79249	495.49200	690.04327	12.62037	581.63269	-27.69914	738.92792	-963.74774	
1775	17.740	-810.51263	3.52329	-642.32697	762.25995	7.76441	-635.54749	-727.49121	7.70577	495.46487	690.06390	12.56638	581.64374	-27.66779	739.10876	-963.40973	
1776	17.750	-810.71167	3.75138	-642.22772	762.18854	7.92974	-635.58337	-727.51392	7.59549	495.47784	690.03802	12.50393	581.68390	-27.74791	739.33887	-963.21362	
1777	17.760	-810.74860	3.88577	-642.13940	762.19263	8.10506	-635.52753	-727.53674	7.53498	495.55292	690.03442	12.39098	581.72949	-27.80050	739.63922	-963.09161	
1778	17.770	-810.72894	4.00972	-642.04041	762.20209	8.19552	-635.42950	-727.55438	7.44610	495.60413	689.91748	12.23717	581.79742	-27.96122	739.92700	-963.09076	
1779	17.780	-810.36945	3.96216	-642.11432	762.26917	8.29966	-635.34229	-727.50348	7.32197	495.63055	689.94507	12.14616	581.87219	-27.97025	740.20447	-963.06842	
1780	17.790	-810.33240	4.00176	-642.08997	762.20313	8.51869	-635.23798	-727.47894	7.18894	495.66248	689.93597	12.04973	581.91248	-27.93663	740.39709	-963.07617	
1781	17.800	-810.38116	4.17062	-642.07642	762.27466	8.60033	-635.20679	-727.48706	7.15291	495.73016	689.95654	11.93179	581.96820	-27.92864	740.57129	-963.06097	
